solid T_MESH
 facet normal 0.000000 0.000000 -1.000000
  outer loop
   vertex -2.501000 4.000000 -1.100000
   vertex 7.000000 -1.000000 -1.100000
   vertex -2.501000 -1.000000 -1.100000
  endloop
 endfacet
 facet normal -0.000000 -0.000000 -1.000000
  outer loop
   vertex 7.000000 -1.000000 -1.100000
   vertex -2.501000 4.000000 -1.100000
   vertex 7.000000 4.000000 -1.100000
  endloop
 endfacet
 facet normal -0.000000 0.000000 1.000000
  outer loop
   vertex 7.000000 -1.000000 1.320000
   vertex -2.501000 4.000000 1.320000
   vertex -2.501000 -1.000000 1.320000
  endloop
 endfacet
 facet normal 0.000000 0.000000 1.000000
  outer loop
   vertex -2.501000 4.000000 1.320000
   vertex 7.000000 -1.000000 1.320000
   vertex 7.000000 4.000000 1.320000
  endloop
 endfacet
 facet normal 0.000000 1.000000 0.000000
  outer loop
   vertex -2.501000 4.000000 -1.100000
   vertex -2.501000 4.000000 1.320000
   vertex 7.000000 4.000000 1.320000
  endloop
 endfacet
 facet normal -0.000000 1.000000 0.000000
  outer loop
   vertex 7.000000 4.000000 -1.100000
   vertex -2.501000 4.000000 -1.100000
   vertex 7.000000 4.000000 1.320000
  endloop
 endfacet
 facet normal 1.000000 -0.000000 0.000000
  outer loop
   vertex 7.000000 4.000000 -1.100000
   vertex 7.000000 4.000000 1.320000
   vertex 7.000000 -1.000000 1.320000
  endloop
 endfacet
 facet normal 1.000000 0.000000 0.000000
  outer loop
   vertex 7.000000 -1.000000 -1.100000
   vertex 7.000000 4.000000 -1.100000
   vertex 7.000000 -1.000000 1.320000
  endloop
 endfacet
 facet normal -1.000000 -0.000000 -0.000000
  outer loop
   vertex -2.501000 -1.000000 -1.100000
   vertex -2.501000 -1.000000 1.320000
   vertex -2.501000 4.000000 1.320000
  endloop
 endfacet
 facet normal -1.000000 0.000000 -0.000000
  outer loop
   vertex -2.501000 4.000000 -1.100000
   vertex -2.501000 -1.000000 -1.100000
   vertex -2.501000 4.000000 1.320000
  endloop
 endfacet
 facet normal 0.000000 -1.000000 0.000000
  outer loop
   vertex 7.000000 -1.000000 -1.100000
   vertex 7.000000 -1.000000 1.320000
   vertex -2.501000 -1.000000 1.320000
  endloop
 endfacet
 facet normal -0.000000 -1.000000 -0.000000
  outer loop
   vertex -2.501000 -1.000000 -1.100000
   vertex 7.000000 -1.000000 -1.100000
   vertex -2.501000 -1.000000 1.320000
  endloop
 endfacet
endsolid T_MESH
