<?xml version="1.0" encoding="UTF-8"?>
<svg xmlns="http://www.w3.org/2000/svg" xmlns:xlink="http://www.w3.org/1999/xlink" width="20" height="6.1" viewBox="-8 -3.35 20 6.1">
<defs>
<style type="text/css">
.l111d0 {stroke: #B3446C; fill: #B3446C; fill-opacity: 0.5;}
.l1d0 {stroke: #A1CAF1; fill: #A1CAF1; fill-opacity: 0.5;}
.l0d0 {stroke: #F38400; fill: #F38400; fill-opacity: 0.5;}
.l112d0 {stroke: #DCD300; fill: #DCD300; fill-opacity: 0.5;}
</style>
<g id="coupler_G0p1_L4_CScoupl_f6904838">
<polygon id="0000020D8FD3FD20" class="l1d0" points="-8,-1.95 -8,-1.45 -7.881,-1.449 -7.764,-1.448 -7.65,-1.445 -7.539,-1.442 -7.429,-1.437 -7.322,-1.432 -7.217,-1.426 -7.115,-1.419 -7.014,-1.411 -6.916,-1.402 -6.819,-1.392 -6.725,-1.381 -6.632,-1.37 -6.541,-1.358 -6.452,-1.345 -6.365,-1.332 -6.28,-1.318 -6.196,-1.303 -6.114,-1.288 -6.033,-1.272 -5.954,-1.255 -5.876,-1.238 -5.799,-1.22 -5.724,-1.201 -5.65,-1.183 -5.577,-1.163 -5.505,-1.143 -5.435,-1.123 -5.365,-1.102 -5.296,-1.081 -5.162,-1.037 -5.096,-1.015 -5.03,-0.992 -4.965,-0.969 -4.901,-0.946 -4.838,-0.922 -4.774,-0.898 -4.712,-0.874 -4.649,-0.849 -4.588,-0.824 -4.464,-0.774 -4.403,-0.749 -4.342,-0.723 -4.281,-0.698 -4.098,-0.62 -4.036,-0.594 -3.975,-0.568 -3.789,-0.49 -3.663,-0.438 -3.535,-0.386 -3.47,-0.361 -3.405,-0.335 -3.339,-0.31 -3.272,-0.285 -3.204,-0.26 -3.136,-0.236 -3.067,-0.212 -2.997,-0.188 -2.853,-0.142 -2.78,-0.119 -2.706,-0.097 -2.63,-0.075 -2.554,-0.054 -2.476,-0.034 -2.397,-0.013 -2.317,0.006 -2.235,0.025 -2.152,0.044 -2.067,0.061 -1.981,0.079 -1.894,0.095 -1.804,0.111 -1.714,0.126 -1.621,0.14 -1.527,0.153 -1.431,0.166 -1.333,0.178 -1.233,0.189 -1.132,0.199 -1.028,0.209 -0.923,0.217 -0.815,0.225 -0.705,0.231 -0.593,0.237 -0.479,0.242 -0.363,0.245 -0.244,0.248 -0.123,0.249 0,0.25 4,0.25 4.123,0.249 4.244,0.248 4.363,0.245 4.479,0.242 4.593,0.237 4.705,0.231 4.815,0.225 4.923,0.217 5.028,0.209 5.132,0.199 5.233,0.189 5.333,0.178 5.431,0.166 5.527,0.153 5.621,0.14 5.714,0.126 5.804,0.111 5.894,0.095 5.981,0.079 6.067,0.061 6.152,0.044 6.235,0.025 6.317,0.006 6.397,-0.013 6.476,-0.034 6.554,-0.054 6.63,-0.075 6.706,-0.097 6.78,-0.119 6.853,-0.142 6.997,-0.188 7.067,-0.212 7.136,-0.236 7.204,-0.26 7.272,-0.285 7.339,-0.31 7.405,-0.335 7.47,-0.361 7.535,-0.386 7.663,-0.438 7.789,-0.49 7.975,-0.568 8.036,-0.594 8.098,-0.62 8.281,-0.698 8.342,-0.723 8.403,-0.749 8.464,-0.774 8.588,-0.824 8.649,-0.849 8.712,-0.874 8.774,-0.898 8.838,-0.922 8.901,-0.946 8.965,-0.969 9.03,-0.992 9.096,-1.015 9.162,-1.037 9.296,-1.081 9.365,-1.102 9.435,-1.123 9.505,-1.143 9.577,-1.163 9.65,-1.183 9.724,-1.201 9.799,-1.22 9.876,-1.238 9.954,-1.255 10.033,-1.272 10.114,-1.288 10.196,-1.303 10.28,-1.318 10.365,-1.332 10.452,-1.345 10.541,-1.358 10.632,-1.37 10.725,-1.381 10.819,-1.392 10.916,-1.402 11.014,-1.411 11.115,-1.419 11.217,-1.426 11.322,-1.432 11.429,-1.437 11.539,-1.442 11.65,-1.445 11.764,-1.448 11.881,-1.449 12,-1.45 12,-1.95 11.877,-1.949 11.756,-1.948 11.637,-1.945 11.521,-1.942 11.407,-1.937 11.295,-1.931 11.185,-1.925 11.077,-1.917 10.972,-1.909 10.868,-1.899 10.767,-1.889 10.667,-1.878 10.569,-1.866 10.473,-1.853 10.379,-1.84 10.286,-1.826 10.196,-1.811 10.106,-1.795 10.019,-1.779 9.933,-1.761 9.848,-1.744 9.765,-1.725 9.683,-1.706 9.603,-1.687 9.524,-1.666 9.446,-1.646 9.37,-1.625 9.294,-1.603 9.22,-1.581 9.147,-1.558 9.003,-1.512 8.933,-1.488 8.864,-1.464 8.796,-1.44 8.728,-1.415 8.661,-1.39 8.595,-1.365 8.53,-1.339 8.465,-1.314 8.337,-1.262 8.211,-1.21 8.025,-1.132 7.964,-1.106 7.902,-1.08 7.719,-1.002 7.658,-0.977 7.597,-0.951 7.536,-0.926 7.412,-0.876 7.351,-0.851 7.288,-0.826 7.226,-0.802 7.162,-0.778 7.099,-0.754 7.035,-0.731 6.97,-0.708 6.904,-0.685 6.838,-0.663 6.704,-0.619 6.635,-0.598 6.565,-0.577 6.495,-0.557 6.423,-0.537 6.35,-0.517 6.276,-0.499 6.201,-0.48 6.124,-0.462 6.046,-0.445 5.967,-0.428 5.886,-0.412 5.804,-0.397 5.72,-0.382 5.635,-0.368 5.548,-0.355 5.459,-0.342 5.368,-0.33 5.275,-0.319 5.181,-0.308 5.084,-0.298 4.986,-0.289 4.885,-0.281 4.783,-0.274 4.678,-0.268 4.571,-0.263 4.461,-0.258 4.35,-0.255 4.236,-0.252 4.119,-0.251 4,-0.25 0,-0.25 -0.119,-0.251 -0.236,-0.252 -0.35,-0.255 -0.461,-0.258 -0.571,-0.263 -0.678,-0.268 -0.783,-0.274 -0.885,-0.281 -0.986,-0.289 -1.084,-0.298 -1.181,-0.308 -1.275,-0.319 -1.368,-0.33 -1.459,-0.342 -1.548,-0.355 -1.635,-0.368 -1.72,-0.382 -1.804,-0.397 -1.886,-0.412 -1.967,-0.428 -2.046,-0.445 -2.124,-0.462 -2.201,-0.48 -2.276,-0.499 -2.35,-0.517 -2.423,-0.537 -2.495,-0.557 -2.565,-0.577 -2.635,-0.598 -2.704,-0.619 -2.838,-0.663 -2.904,-0.685 -2.97,-0.708 -3.035,-0.731 -3.099,-0.754 -3.162,-0.778 -3.226,-0.802 -3.288,-0.826 -3.351,-0.851 -3.412,-0.876 -3.536,-0.926 -3.597,-0.951 -3.658,-0.977 -3.719,-1.002 -3.902,-1.08 -3.964,-1.106 -4.025,-1.132 -4.211,-1.21 -4.337,-1.262 -4.465,-1.314 -4.53,-1.339 -4.595,-1.365 -4.661,-1.39 -4.728,-1.415 -4.796,-1.44 -4.864,-1.464 -4.933,-1.488 -5.003,-1.512 -5.147,-1.558 -5.22,-1.581 -5.294,-1.603 -5.37,-1.625 -5.446,-1.646 -5.524,-1.666 -5.603,-1.687 -5.683,-1.706 -5.765,-1.725 -5.848,-1.744 -5.933,-1.761 -6.019,-1.779 -6.106,-1.795 -6.196,-1.811 -6.286,-1.826 -6.379,-1.84 -6.473,-1.853 -6.569,-1.866 -6.667,-1.878 -6.767,-1.889 -6.868,-1.899 -6.972,-1.909 -7.077,-1.917 -7.185,-1.925 -7.295,-1.931 -7.407,-1.937 -7.521,-1.942 -7.637,-1.945 -7.756,-1.948 -7.877,-1.949"/>
<polygon id="0000020D8FD3F310" class="l1d0" points="0,0.35 -0.123,0.351 -0.244,0.352 -0.363,0.355 -0.479,0.358 -0.593,0.363 -0.705,0.369 -0.815,0.375 -0.923,0.383 -1.028,0.391 -1.132,0.401 -1.233,0.411 -1.333,0.422 -1.431,0.434 -1.527,0.447 -1.621,0.46 -1.714,0.474 -1.804,0.489 -1.894,0.505 -1.981,0.521 -2.067,0.539 -2.152,0.556 -2.235,0.575 -2.317,0.594 -2.397,0.613 -2.476,0.634 -2.554,0.654 -2.63,0.675 -2.706,0.697 -2.78,0.719 -2.853,0.742 -2.997,0.788 -3.067,0.812 -3.136,0.836 -3.204,0.86 -3.272,0.885 -3.339,0.91 -3.405,0.935 -3.47,0.961 -3.535,0.986 -3.663,1.038 -3.789,1.09 -3.975,1.168 -4.036,1.194 -4.098,1.22 -4.281,1.298 -4.342,1.323 -4.403,1.349 -4.464,1.374 -4.588,1.424 -4.649,1.449 -4.712,1.474 -4.774,1.498 -4.838,1.522 -4.901,1.546 -4.965,1.569 -5.03,1.592 -5.096,1.615 -5.162,1.637 -5.296,1.681 -5.365,1.702 -5.435,1.723 -5.505,1.743 -5.577,1.763 -5.65,1.783 -5.724,1.801 -5.799,1.82 -5.876,1.838 -5.954,1.855 -6.033,1.872 -6.114,1.888 -6.196,1.903 -6.28,1.918 -6.365,1.932 -6.452,1.945 -6.541,1.958 -6.632,1.97 -6.725,1.981 -6.819,1.992 -6.916,2.002 -7.014,2.011 -7.115,2.019 -7.217,2.026 -7.322,2.032 -7.429,2.037 -7.539,2.042 -7.65,2.045 -7.764,2.048 -7.881,2.049 -8,2.05 -8,2.55 -7.877,2.549 -7.756,2.548 -7.637,2.545 -7.521,2.542 -7.407,2.537 -7.295,2.531 -7.185,2.525 -7.077,2.517 -6.972,2.509 -6.868,2.499 -6.767,2.489 -6.667,2.478 -6.569,2.466 -6.473,2.453 -6.379,2.44 -6.286,2.426 -6.196,2.411 -6.106,2.395 -6.019,2.379 -5.933,2.361 -5.848,2.344 -5.765,2.325 -5.683,2.306 -5.603,2.287 -5.524,2.266 -5.446,2.246 -5.37,2.225 -5.294,2.203 -5.22,2.181 -5.147,2.158 -5.003,2.112 -4.933,2.088 -4.864,2.064 -4.796,2.04 -4.728,2.015 -4.661,1.99 -4.595,1.965 -4.53,1.939 -4.465,1.914 -4.337,1.862 -4.211,1.81 -4.025,1.732 -3.964,1.706 -3.902,1.68 -3.719,1.602 -3.658,1.577 -3.597,1.551 -3.536,1.526 -3.412,1.476 -3.351,1.451 -3.288,1.426 -3.226,1.402 -3.162,1.378 -3.099,1.354 -3.035,1.331 -2.97,1.308 -2.904,1.285 -2.838,1.263 -2.704,1.219 -2.635,1.198 -2.565,1.177 -2.495,1.157 -2.423,1.137 -2.35,1.117 -2.276,1.099 -2.201,1.08 -2.124,1.062 -2.046,1.045 -1.967,1.028 -1.886,1.012 -1.804,0.997 -1.72,0.982 -1.635,0.968 -1.548,0.955 -1.459,0.942 -1.368,0.93 -1.275,0.919 -1.181,0.908 -1.084,0.898 -0.986,0.889 -0.885,0.881 -0.783,0.874 -0.678,0.868 -0.571,0.863 -0.461,0.858 -0.35,0.855 -0.236,0.852 -0.119,0.851 0,0.85 4,0.85 4.119,0.851 4.236,0.852 4.35,0.855 4.461,0.858 4.571,0.863 4.678,0.868 4.783,0.874 4.885,0.881 4.986,0.889 5.084,0.898 5.181,0.908 5.275,0.919 5.368,0.93 5.459,0.942 5.548,0.955 5.635,0.968 5.72,0.982 5.804,0.997 5.886,1.012 5.967,1.028 6.046,1.045 6.124,1.062 6.201,1.08 6.276,1.099 6.35,1.117 6.423,1.137 6.495,1.157 6.565,1.177 6.635,1.198 6.704,1.219 6.838,1.263 6.904,1.285 6.97,1.308 7.035,1.331 7.099,1.354 7.162,1.378 7.226,1.402 7.288,1.426 7.351,1.451 7.412,1.476 7.536,1.526 7.597,1.551 7.658,1.577 7.719,1.602 7.902,1.68 7.964,1.706 8.025,1.732 8.211,1.81 8.337,1.862 8.465,1.914 8.53,1.939 8.595,1.965 8.661,1.99 8.728,2.015 8.796,2.04 8.864,2.064 8.933,2.088 9.003,2.112 9.147,2.158 9.22,2.181 9.294,2.203 9.37,2.225 9.446,2.246 9.524,2.266 9.603,2.287 9.683,2.306 9.765,2.325 9.848,2.344 9.933,2.361 10.019,2.379 10.106,2.395 10.196,2.411 10.286,2.426 10.379,2.44 10.473,2.453 10.569,2.466 10.667,2.478 10.767,2.489 10.868,2.499 10.972,2.509 11.077,2.517 11.185,2.525 11.295,2.531 11.407,2.537 11.521,2.542 11.637,2.545 11.756,2.548 11.877,2.549 12,2.55 12,2.05 11.881,2.049 11.764,2.048 11.65,2.045 11.539,2.042 11.429,2.037 11.322,2.032 11.217,2.026 11.115,2.019 11.014,2.011 10.916,2.002 10.819,1.992 10.725,1.981 10.632,1.97 10.541,1.958 10.452,1.945 10.365,1.932 10.28,1.918 10.196,1.903 10.114,1.888 10.033,1.872 9.954,1.855 9.876,1.838 9.799,1.82 9.724,1.801 9.65,1.783 9.577,1.763 9.505,1.743 9.435,1.723 9.365,1.702 9.296,1.681 9.162,1.637 9.096,1.615 9.03,1.592 8.965,1.569 8.901,1.546 8.838,1.522 8.774,1.498 8.712,1.474 8.649,1.449 8.588,1.424 8.464,1.374 8.403,1.349 8.342,1.323 8.281,1.298 8.098,1.22 8.036,1.194 7.975,1.168 7.789,1.09 7.663,1.038 7.535,0.986 7.47,0.961 7.405,0.935 7.339,0.91 7.272,0.885 7.204,0.86 7.136,0.836 7.067,0.812 6.997,0.788 6.853,0.742 6.78,0.719 6.706,0.697 6.63,0.675 6.554,0.654 6.476,0.634 6.397,0.613 6.317,0.594 6.235,0.575 6.152,0.556 6.067,0.539 5.981,0.521 5.894,0.505 5.804,0.489 5.714,0.474 5.621,0.46 5.527,0.447 5.431,0.434 5.333,0.422 5.233,0.411 5.132,0.401 5.028,0.391 4.923,0.383 4.815,0.375 4.705,0.369 4.593,0.363 4.479,0.358 4.363,0.355 4.244,0.352 4.123,0.351 4,0.35"/>
</g>
<g id="Unnamed_6">
<polygon id="0000020D8FD3E510" class="l111d0" points="-8,-2.75 -8,3.35 12,3.35 12,-2.75"/>
<polygon id="0000020D8FD3EC10" class="l112d0" points="-8,-2.75 -8,3.35 12,3.35 12,-2.75"/>
<use transform="translate(0 0)" xlink:href="#coupler_G0p1_L4_CScoupl_f6904838"/>
</g>
</defs>
<rect x="-8" y="-3.35" width="20" height="6.1" fill="#000000" stroke="none"/>
<g id="$$$CONTEXT_INFO$$$" transform="scale(1 -1)">
<polygon id="0000020D8FD3EBA0" class="l0d0" points="0,0 0,0 0,0 0,0"/>
<use transform="translate(0 0)" xlink:href="#coupler_G0p1_L4_CScoupl_f6904838"/>
<use transform="translate(0 0)" xlink:href="#Unnamed_6"/>
</g>
</svg>