solid T_MESH
 facet normal 0.000000 0.000000 -1.000000
  outer loop
   vertex -3.200000 0.250000 0.000000
   vertex 0.400000 -0.250000 0.000000
   vertex -3.200000 -0.250000 0.000000
  endloop
 endfacet
 facet normal -0.000000 -0.000000 -1.000000
  outer loop
   vertex 0.400000 -0.250000 0.000000
   vertex -3.200000 0.250000 0.000000
   vertex 0.400000 0.250000 0.000000
  endloop
 endfacet
 facet normal -0.000000 0.000000 1.000000
  outer loop
   vertex 0.400000 -0.250000 0.220000
   vertex -3.200000 0.250000 0.220000
   vertex -3.200000 -0.250000 0.220000
  endloop
 endfacet
 facet normal 0.000000 0.000000 1.000000
  outer loop
   vertex -3.200000 0.250000 0.220000
   vertex 0.400000 -0.250000 0.220000
   vertex 0.400000 0.250000 0.220000
  endloop
 endfacet
 facet normal 0.000000 1.000000 0.000000
  outer loop
   vertex -3.200000 0.250000 0.000000
   vertex -3.200000 0.250000 0.220000
   vertex 0.400000 0.250000 0.220000
  endloop
 endfacet
 facet normal -0.000000 1.000000 0.000000
  outer loop
   vertex 0.400000 0.250000 0.000000
   vertex -3.200000 0.250000 0.000000
   vertex 0.400000 0.250000 0.220000
  endloop
 endfacet
 facet normal 1.000000 -0.000000 0.000000
  outer loop
   vertex 0.400000 0.250000 0.000000
   vertex 0.400000 0.250000 0.220000
   vertex 0.400000 -0.250000 0.220000
  endloop
 endfacet
 facet normal 1.000000 0.000000 0.000000
  outer loop
   vertex 0.400000 -0.250000 0.000000
   vertex 0.400000 0.250000 0.000000
   vertex 0.400000 -0.250000 0.220000
  endloop
 endfacet
 facet normal -1.000000 -0.000000 -0.000000
  outer loop
   vertex -3.200000 -0.250000 0.000000
   vertex -3.200000 -0.250000 0.220000
   vertex -3.200000 0.250000 0.220000
  endloop
 endfacet
 facet normal -1.000000 0.000000 -0.000000
  outer loop
   vertex -3.200000 0.250000 0.000000
   vertex -3.200000 -0.250000 0.000000
   vertex -3.200000 0.250000 0.220000
  endloop
 endfacet
 facet normal 0.000000 -1.000000 0.000000
  outer loop
   vertex 0.400000 -0.250000 0.000000
   vertex 0.400000 -0.250000 0.220000
   vertex -3.200000 -0.250000 0.220000
  endloop
 endfacet
 facet normal -0.000000 -1.000000 -0.000000
  outer loop
   vertex -3.200000 -0.250000 0.000000
   vertex 0.400000 -0.250000 0.000000
   vertex -3.200000 -0.250000 0.220000
  endloop
 endfacet
endsolid T_MESH
