solid T_MESH
 facet normal 0.000000 0.000000 -1.000000
  outer loop
   vertex -2.700000 0.500000 0.000000
   vertex 2.700000 0.000000 0.000000
   vertex -2.700000 0.000000 0.000000
  endloop
 endfacet
 facet normal -0.000000 -0.000000 -1.000000
  outer loop
   vertex 2.700000 0.000000 0.000000
   vertex -2.700000 0.500000 0.000000
   vertex 2.700000 0.500000 0.000000
  endloop
 endfacet
 facet normal -0.000000 0.000000 1.000000
  outer loop
   vertex 2.700000 0.000000 0.220000
   vertex -2.700000 0.500000 0.220000
   vertex -2.700000 0.000000 0.220000
  endloop
 endfacet
 facet normal 0.000000 0.000000 1.000000
  outer loop
   vertex -2.700000 0.500000 0.220000
   vertex 2.700000 0.000000 0.220000
   vertex 2.700000 0.500000 0.220000
  endloop
 endfacet
 facet normal 0.000000 1.000000 0.000000
  outer loop
   vertex -2.700000 0.500000 0.000000
   vertex -2.700000 0.500000 0.220000
   vertex 2.700000 0.500000 0.220000
  endloop
 endfacet
 facet normal -0.000000 1.000000 0.000000
  outer loop
   vertex 2.700000 0.500000 0.000000
   vertex -2.700000 0.500000 0.000000
   vertex 2.700000 0.500000 0.220000
  endloop
 endfacet
 facet normal 1.000000 -0.000000 0.000000
  outer loop
   vertex 2.700000 0.500000 0.000000
   vertex 2.700000 0.500000 0.220000
   vertex 2.700000 0.000000 0.220000
  endloop
 endfacet
 facet normal 1.000000 0.000000 0.000000
  outer loop
   vertex 2.700000 0.000000 0.000000
   vertex 2.700000 0.500000 0.000000
   vertex 2.700000 0.000000 0.220000
  endloop
 endfacet
 facet normal -1.000000 -0.000000 -0.000000
  outer loop
   vertex -2.700000 0.000000 0.000000
   vertex -2.700000 0.000000 0.220000
   vertex -2.700000 0.500000 0.220000
  endloop
 endfacet
 facet normal -1.000000 0.000000 -0.000000
  outer loop
   vertex -2.700000 0.500000 0.000000
   vertex -2.700000 0.000000 0.000000
   vertex -2.700000 0.500000 0.220000
  endloop
 endfacet
 facet normal 0.000000 -1.000000 0.000000
  outer loop
   vertex 2.700000 0.000000 0.000000
   vertex 2.700000 0.000000 0.220000
   vertex -2.700000 0.000000 0.220000
  endloop
 endfacet
 facet normal -0.000000 -1.000000 -0.000000
  outer loop
   vertex -2.700000 0.000000 0.000000
   vertex 2.700000 0.000000 0.000000
   vertex -2.700000 0.000000 0.220000
  endloop
 endfacet
endsolid T_MESH
