solid T_MESH
 facet normal 0.000000 0.000000 -1.000000
  outer loop
   vertex -0.700000 1.150000 -1.090000
   vertex 0.300000 -1.250000 -1.090000
   vertex -0.700000 -1.250000 -1.090000
  endloop
 endfacet
 facet normal -0.000000 -0.000000 -1.000000
  outer loop
   vertex 0.300000 -1.250000 -1.090000
   vertex -0.700000 1.150000 -1.090000
   vertex 0.300000 1.150000 -1.090000
  endloop
 endfacet
 facet normal -0.000000 0.000000 1.000000
  outer loop
   vertex 0.300000 -1.250000 1.310000
   vertex -0.700000 1.150000 1.310000
   vertex -0.700000 -1.250000 1.310000
  endloop
 endfacet
 facet normal 0.000000 0.000000 1.000000
  outer loop
   vertex -0.700000 1.150000 1.310000
   vertex 0.300000 -1.250000 1.310000
   vertex 0.300000 1.150000 1.310000
  endloop
 endfacet
 facet normal 0.000000 1.000000 0.000000
  outer loop
   vertex -0.700000 1.150000 -1.090000
   vertex -0.700000 1.150000 1.310000
   vertex 0.300000 1.150000 1.310000
  endloop
 endfacet
 facet normal -0.000000 1.000000 0.000000
  outer loop
   vertex 0.300000 1.150000 -1.090000
   vertex -0.700000 1.150000 -1.090000
   vertex 0.300000 1.150000 1.310000
  endloop
 endfacet
 facet normal 1.000000 -0.000000 0.000000
  outer loop
   vertex 0.300000 1.150000 -1.090000
   vertex 0.300000 1.150000 1.310000
   vertex 0.300000 -1.250000 1.310000
  endloop
 endfacet
 facet normal 1.000000 0.000000 0.000000
  outer loop
   vertex 0.300000 -1.250000 -1.090000
   vertex 0.300000 1.150000 -1.090000
   vertex 0.300000 -1.250000 1.310000
  endloop
 endfacet
 facet normal -1.000000 -0.000000 -0.000000
  outer loop
   vertex -0.700000 -1.250000 -1.090000
   vertex -0.700000 -1.250000 1.310000
   vertex -0.700000 1.150000 1.310000
  endloop
 endfacet
 facet normal -1.000000 0.000000 -0.000000
  outer loop
   vertex -0.700000 1.150000 -1.090000
   vertex -0.700000 -1.250000 -1.090000
   vertex -0.700000 1.150000 1.310000
  endloop
 endfacet
 facet normal 0.000000 -1.000000 0.000000
  outer loop
   vertex 0.300000 -1.250000 -1.090000
   vertex 0.300000 -1.250000 1.310000
   vertex -0.700000 -1.250000 1.310000
  endloop
 endfacet
 facet normal -0.000000 -1.000000 -0.000000
  outer loop
   vertex -0.700000 -1.250000 -1.090000
   vertex 0.300000 -1.250000 -1.090000
   vertex -0.700000 -1.250000 1.310000
  endloop
 endfacet
endsolid T_MESH
